<?xml version="1.0" encoding="UTF-8"?>
<svg id="Layer_2" data-name="Layer 2" xmlns="http://www.w3.org/2000/svg" viewBox="0 0 177.8 177.65">
  <defs>
    <style>
      .cls-1 {
        fill: #fff;
      }

      .cls-2 {
        fill: #f89521;
      }
    </style>
  </defs>
  <g id="Layer_2-2" data-name="Layer 2">
    <path class="cls-1" d="M177.8,89.26c0,4.08-.29,8.01-.73,11.8-.29,1.89-.58,3.64-.87,5.53-2.04,10.19-5.82,19.95-11.07,28.54-13.4,22.13-36.11,38.01-62.91,42.08l-3.49.44H0V42.67h114.02c15.87,1.89,28.25,15.58,28.25,32.04s-14.12,31.89-31.74,31.89c9.61,0,17.47-8.01,17.47-17.77s-7.86-17.77-17.77-17.77H42.81v-.44,64.36h67.42c22.72,0,42.96-11.21,55.19-28.54,3.79-5.39,6.84-11.21,8.88-17.62,1.31-3.79,2.18-7.72,2.77-11.65.44-3.2.73-6.41.73-9.76v21.7h0v.15Z"/>
    <path class="cls-2" d="M42.67,135.13h67.42c22.72,0,42.96-11.21,55.19-28.54,3.79-5.39,6.84-11.21,8.88-17.62,1.31-3.79,2.18-7.72,2.77-11.65.44-3.2.73-6.41.73-9.76,0-8.74-1.75-17.18-4.66-24.9C163.09,17.62,138.77,0,110.23,0H42.67L0,42.67h113.87c15.87,1.89,28.25,15.58,28.25,32.04s-14.12,31.74-31.74,31.89h-39.32"/>
  </g>
</svg>