<?xml version="1.0" encoding="UTF-8"?>
<svg id="Layer_2" xmlns="http://www.w3.org/2000/svg" version="1.1" viewBox="0 0 634.5 122.1">
  <!-- Generator: Adobe Illustrator 29.8.3, SVG Export Plug-In . SVG Version: 2.1.1 Build 3)  -->
  <defs>
    <style>
      .st0 {
        fill: #fff;
      }

      .st1 {
        fill: #f89521;
      }
    </style>
  </defs>
  <path class="st0" d="M39.2,122.1H0V10h37.1c5.5,0,10.3.3,14.5.8,4.8.6,9.2,1.7,13.1,3.1,8.7,3.1,16,8.8,21.9,17,6.9,9.6,10.3,21.2,10.3,34.8,0,37.6-19.2,56.3-57.7,56.3h0ZM61.8,44c-4.7-5.9-11.7-8.9-20.8-8.9h-12.4v61.8h12.3c9.4,0,16.4-2.9,21-8.6,4.3-5.2,6.4-12.6,6.4-22.2s-2.2-16.8-6.5-22.2h0Z"/>
  <path class="st1" d="M178.1,58.8c-6.7-15-19.2-23.9-36.4-23.9s-29.7,8.9-36.2,23.9c-5.5,12.2-5.1,24.7-.4,36.7,3.7,9.5,9.2,16.1,16.2,20.7,6.3,4.1,12.9,5.9,20.5,5.9s14.2-1.9,20.5-5.9c7.1-4.6,12.6-11.1,16.2-20.7,4.6-12,5.1-24.5-.4-36.7h0Z"/>
  <path class="st0" d="M243,122.1v-11.9h-.3c-2.1,4.3-5.1,7.4-9,9.2-3.4,1.6-7.7,2.4-12.8,2.4-10.7,0-18.9-3.5-24.7-10.6-3.1-3.9-5.2-8-6.3-12.3-.8-3.2-1.3-7.8-1.3-13.7v-50.3h25.1v46.5c0,5.4.8,9.4,2.5,12,2.1,3.2,5.7,4.8,10.9,4.8,9.6,0,14.4-5.7,14.4-17.1v-46.2h25.1v87h-23.8,0Z"/>
  <path class="st0" d="M352.3,108.8c-7.9,8.8-18.2,13.2-31,13.2s-9.3-.9-13.6-2.8c-4.9-2.2-8.4-5.2-10.4-9h-.3v11.9h-24.1V10.1h25.1v31.7c6-6.4,14.1-9.5,24.4-9.5s11.8,1.4,17.7,4.1c7.9,3.7,13.9,9.1,17.9,16.4,3.8,6.8,5.8,14.8,5.8,23.9,0,13-3.8,23.7-11.4,32.2h0ZM332.6,62.1c-4-4.2-8.9-6.4-14.7-6.4s-10.9,2-14.9,6.1c-3.9,4.1-5.9,9.1-5.9,15.1s1.9,11.2,5.6,15.3c3.8,4.2,8.8,6.3,14.8,6.3s11-2.1,15.1-6.2c4-4.1,6-9.2,6-15.2s-2-10.9-5.9-15h0Z"/>
  <path class="st0" d="M368.7,122.1V10.1h25.1v112.1h-25.1Z"/>
  <path class="st0" d="M486.1,84.8h-63c1.6,10.6,8.1,15.9,19.7,15.9s11.1-2.6,15.3-7.8h25.7c-3.7,8.7-9.1,15.7-16.1,20.8-7.4,5.5-15.8,8.2-24.9,8.2s-22.7-4.4-31.4-13.1c-8.7-8.7-13.1-19.2-13.1-31.4s4.3-22.9,12.8-31.7c8.6-9,19-13.5,31.3-13.5s23.3,4.5,31.9,13.5c8.3,8.8,12.5,19.6,12.5,32.5s-.2,4.6-.6,6.7h0ZM461.6,67.9c-2.1-9.6-8.4-14.4-19.1-14.4s-17,4.8-19.1,14.4h38.1Z"/>
  <path class="st0" d="M634.5,61.3c0,2.8-.2,5.5-.5,8.1-.2,1.3-.4,2.5-.6,3.8-1.4,7-4,13.7-7.6,19.6-9.2,15.2-24.8,26.1-43.2,28.9-.8.1-1.6.2-2.4.3h-67.8V29.3h75.7c.9,0,1.7,0,2.6,0h0c10.9,1.3,19.4,10.7,19.4,22s-9.7,21.9-21.8,21.9c6.6,0,12-5.5,12-12.2s-5.4-12.2-12.2-12.2h-46.3c0,0,0-.2,0-.3v44.2h46.3c15.6,0,29.5-7.7,37.9-19.6,2.6-3.7,4.7-7.7,6.1-12.1.9-2.6,1.5-5.3,1.9-8,.3-2.2.5-4.4.5-6.7v14.9c0,0,0,0,0,0Z"/>
  <path class="st1" d="M541.7,92.8h46.3c15.6,0,29.5-7.7,37.9-19.6,2.6-3.7,4.7-7.7,6.1-12.1.9-2.6,1.5-5.3,1.9-8,.3-2.2.5-4.4.5-6.7,0-6-1.2-11.8-3.2-17.1C624.4,12.1,607.7,0,588.1,0h-46.4l-29.3,29.3h78.2c10.9,1.3,19.4,10.7,19.4,22s-9.7,21.8-21.8,21.9h-27"/>
</svg>